<svg xmlns="http://www.w3.org/2000/svg" xmlns:xlink="http://www.w3.org/1999/xlink" width="1919.982" height="270.857" viewBox="0 0 1919.982 270.857">
  <defs>
    <clipPath id="clip-path">
      <rect width="1919.982" height="270.857" fill="none"/>
    </clipPath>
  </defs>
  <g id="Repetir_cuadrícula_1" data-name="Repetir cuadrícula 1" clip-path="url(#clip-path)">
    <g id="Grupo_9597" data-name="Grupo 9597" transform="translate(0 1)">
      <g id="Grupo_9595" data-name="Grupo 9595" transform="translate(2530 1682)">
        <g id="Grupo_9575" data-name="Grupo 9575" transform="translate(-2530 -1683)">
          <g id="Grupo_9558" data-name="Grupo 9558" transform="translate(0 181.05)">
            <path id="Trazado_25279" data-name="Trazado 25279" d="M15.459,1057.187l5.312-9.118a5.076,5.076,0,0,0-1.825-6.921L7.539,1034.5a5.076,5.076,0,0,0-6.92,1.826L0,1037.39v16.648l8.539,4.974A5.076,5.076,0,0,0,15.459,1057.187Z" transform="translate(0 -1015.773)" fill="#8cdbd1"/>
            <rect id="Rectángulo_2426" data-name="Rectángulo 2426" width="20.675" height="23.323" rx="10.337" transform="matrix(0.503, -0.864, 0.864, 0.503, 16.992, 48.165)" fill="#8cdbd1"/>
            <rect id="Rectángulo_2427" data-name="Rectángulo 2427" width="20.675" height="23.323" rx="10.337" transform="matrix(0.503, -0.864, 0.864, 0.503, 41.226, 62.282)" fill="#8cdbd1"/>
            <path id="Trazado_25280" data-name="Trazado 25280" d="M0,1179.329v.831l.361-.621Z" transform="translate(0 -1133.26)" fill="#8cdbd1"/>
            <path id="Trazado_25281" data-name="Trazado 25281" d="M4.537,995.982l3.28,1.911,4.009,2.335,3.28,1.911,4.009,2.335,3.28,1.911,4.009,2.335,3.28,1.911,4.009,2.335,3.28,1.911,4.008,2.335,3.28,1.911,4.008,2.335,3.28,1.911,4.009,2.335,3.28,1.911,3.6,2.095a1.859,1.859,0,0,0,2.48-.818L86.6,991.667a1.859,1.859,0,0,0-.512-2.561l-3.6-2.095-3.28-1.911L75.2,982.765l-3.28-1.911-4.009-2.335-3.28-1.911-4.009-2.335-3.28-1.911-4.009-2.335-3.28-1.911-4.009-2.335-3.28-1.911-4.009-2.335-3.28-1.911-4.009-2.335-3.28-1.911-4.008-2.335-3.28-1.911L16.894,948.8l-3.28-1.911-4.009-2.335-3.28-1.911-3.98-2.318A1.826,1.826,0,0,0,0,940.939v8.055l.326-.56a1.737,1.737,0,0,1,2.368-.624l.464.27,1.029-1.766,3.28,1.911L6.437,949.99l4.009,2.335,1.029-1.767,3.28,1.911-1.029,1.767,4.009,2.335,1.029-1.766,3.28,1.911-1.029,1.766,4.008,2.335,1.029-1.767,3.28,1.911L28.3,962.727l4.009,2.335L33.34,963.3l3.28,1.911-1.029,1.767,4.009,2.335,1.029-1.767,3.28,1.911-1.029,1.767,4.009,2.335,1.029-1.767L51.2,973.7l-1.029,1.766,4.009,2.336,1.029-1.767,3.28,1.911-1.029,1.767,4.009,2.335,1.029-1.767,3.28,1.911-1.029,1.767,4.009,2.335,1.029-1.766,3.28,1.911L72.032,988.2l4.009,2.335,1.029-1.766,3.28,1.911-1.029,1.767.08.047a1.737,1.737,0,0,1,.625,2.368L64.4,1021.692a1.736,1.736,0,0,1-2.368.624l-.08-.047-1.029,1.767-3.28-1.911,1.029-1.766-4.009-2.335-1.029,1.767-3.28-1.911,1.029-1.766-4.009-2.335-1.029,1.767-3.28-1.911,1.029-1.767-4.009-2.335-1.029,1.766-3.28-1.911,1.029-1.767-4.009-2.335-1.029,1.767-3.28-1.911,1.029-1.767-4.009-2.335-1.029,1.767L21.2,1000.9l1.029-1.767-4.008-2.335-1.029,1.767-3.28-1.911,1.029-1.767-4.008-2.335L9.9,994.315,6.621,992.4l1.029-1.767L3.641,988.3,2.612,990.07,0,988.548v4.792l.528.308Z" transform="translate(0 -940.112)" fill="#8cdbd1"/>
          </g>
          <g id="Grupo_9560" data-name="Grupo 9560">
            <path id="Trazado_25282" data-name="Trazado 25282" d="M51.832,36.69A44.322,44.322,0,0,0,32.417,0H25.931A41.079,41.079,0,0,1,0,77.081v3.35A44.39,44.39,0,0,0,51.832,36.69Z" fill="#8cdbd1"/>
            <g id="Grupo_9559" data-name="Grupo 9559">
              <path id="Trazado_25283" data-name="Trazado 25283" d="M102.575,98.173A9.466,9.466,0,0,0,114.8,102a25.8,25.8,0,0,0-9.434-16.333A9.466,9.466,0,0,0,102.575,98.173Z" transform="translate(-81.796 -69.171)" fill="#8cdbd1"/>
              <path id="Trazado_25284" data-name="Trazado 25284" d="M7.462,66.837a9.466,9.466,0,0,0,9.432-8.678A25.933,25.933,0,0,0,0,57.479v5.71A9.443,9.443,0,0,0,7.462,66.837Z" transform="translate(0 -45.525)" fill="#8cdbd1"/>
              <path id="Trazado_25285" data-name="Trazado 25285" d="M7.462,160.291A9.467,9.467,0,1,0,0,145v11.643A9.448,9.448,0,0,0,7.462,160.291Z" transform="translate(0 -114.134)" fill="#8cdbd1"/>
              <path id="Trazado_25286" data-name="Trazado 25286" d="M114.8,206.764a9.464,9.464,0,0,0-9.434,16.334A25.805,25.805,0,0,0,114.8,206.764Z" transform="translate(-81.796 -166.216)" fill="#8cdbd1"/>
              <path id="Trazado_25287" data-name="Trazado 25287" d="M16.894,279.038A9.462,9.462,0,0,0,0,274.008v5.71a25.93,25.93,0,0,0,16.894-.68Z" transform="translate(0 -218.293)" fill="#8cdbd1"/>
              <path id="Trazado_25288" data-name="Trazado 25288" d="M46.008,36.69A38.561,38.561,0,0,0,19.3,0H0V6.024a9.465,9.465,0,0,1,16.929,5.822c0,.266-.014.528-.035.789A25.8,25.8,0,0,1,23.573,16.5c.217-.15.439-.3.672-.429a9.467,9.467,0,0,1,9.467,16.4c-.231.134-.467.253-.7.366a26.076,26.076,0,0,1,0,7.716c.237.112.473.232.7.366a9.467,9.467,0,0,1-9.467,16.4c-.232-.134-.455-.279-.672-.429a25.8,25.8,0,0,1-6.679,3.864c.022.26.035.523.035.789A9.465,9.465,0,0,1,0,67.355v7.156A38.568,38.568,0,0,0,46.008,36.69Z" fill="#8cdbd1"/>
              <path id="Trazado_25289" data-name="Trazado 25289" d="M18.271,115.609a25.8,25.8,0,0,0,4.1-2.374,10.9,10.9,0,0,1,10.809-18.72c.071-.781.112-1.57.112-2.369s-.041-1.588-.112-2.369a10.9,10.9,0,0,1-10.809-18.72,25.779,25.779,0,0,0-4.1-2.374A10.892,10.892,0,0,1,0,75.246v8.961a10.9,10.9,0,1,1,0,15.877v8.962a10.891,10.891,0,0,1,18.271,6.562Z" transform="translate(0 -55.457)" fill="#8cdbd1"/>
              <path id="Trazado_25290" data-name="Trazado 25290" d="M7.462,160.291A9.467,9.467,0,1,0,0,145v11.643A9.448,9.448,0,0,0,7.462,160.291Z" transform="translate(0 -114.134)" fill="#8cdbd1"/>
            </g>
          </g>
          <g id="Grupo_9562" data-name="Grupo 9562" transform="translate(97.245 122.658)">
            <path id="Trazado_25291" data-name="Trazado 25291" d="M549.317,636.907a44.37,44.37,0,1,0,44.37,44.37A44.369,44.369,0,0,0,549.317,636.907Zm0,85.439a41.069,41.069,0,1,1,41.069-41.069A41.069,41.069,0,0,1,549.317,722.346Z" transform="translate(-504.948 -636.907)" fill="#8cdbd1"/>
            <g id="Grupo_9561" data-name="Grupo 9561" transform="translate(5.824 5.824)">
              <path id="Trazado_25292" data-name="Trazado 25292" d="M799.166,774.957a9.466,9.466,0,0,0,12.227,3.831,25.805,25.805,0,0,0-9.434-16.333A9.466,9.466,0,0,0,799.166,774.957Z" transform="translate(-747.303 -744.099)" fill="#8cdbd1"/>
              <path id="Trazado_25293" data-name="Trazado 25293" d="M614.925,774.957a9.466,9.466,0,0,0-2.793-12.5,25.805,25.805,0,0,0-9.434,16.333A9.466,9.466,0,0,0,614.925,774.957Z" transform="translate(-589.697 -744.099)" fill="#8cdbd1"/>
              <path id="Trazado_25294" data-name="Trazado 25294" d="M695.8,743.622a9.466,9.466,0,0,0,9.432-8.678,25.924,25.924,0,0,0-18.863,0A9.466,9.466,0,0,0,695.8,743.622Z" transform="translate(-657.25 -720.452)" fill="#8cdbd1"/>
              <circle id="Elipse_617" data-name="Elipse 617" cx="9.467" cy="9.467" r="9.467" transform="matrix(0.856, -0.517, 0.517, 0.856, 25.547, 35.342)" fill="#8cdbd1"/>
              <path id="Trazado_25295" data-name="Trazado 25295" d="M811.393,883.549a9.464,9.464,0,0,0-9.434,16.333A25.8,25.8,0,0,0,811.393,883.549Z" transform="translate(-747.303 -841.145)" fill="#8cdbd1"/>
              <path id="Trazado_25296" data-name="Trazado 25296" d="M614.925,887.379a9.465,9.465,0,0,0-12.227-3.831,25.8,25.8,0,0,0,9.434,16.333A9.466,9.466,0,0,0,614.925,887.379Z" transform="translate(-589.697 -841.145)" fill="#8cdbd1"/>
              <path id="Trazado_25297" data-name="Trazado 25297" d="M695.8,947.145a9.466,9.466,0,0,0-9.432,8.678,25.929,25.929,0,0,0,18.863,0A9.466,9.466,0,0,0,695.8,947.145Z" transform="translate(-657.25 -893.222)" fill="#8cdbd1"/>
              <path id="Trazado_25298" data-name="Trazado 25298" d="M573.733,667.146a38.546,38.546,0,1,0,38.546,38.546A38.546,38.546,0,0,0,573.733,667.146Zm29.714,55.7a9.466,9.466,0,0,1-12.932,3.465c-.233-.134-.455-.279-.672-.429a25.8,25.8,0,0,1-6.679,3.864c.021.26.035.523.035.789a9.467,9.467,0,0,1-18.934,0c0-.266.014-.528.035-.789a25.807,25.807,0,0,1-6.679-3.864c-.216.15-.439.3-.672.429a9.467,9.467,0,1,1-9.467-16.4c.231-.134.467-.254.7-.365a26.084,26.084,0,0,1,0-7.716c-.237-.112-.473-.232-.7-.366a9.467,9.467,0,1,1,9.467-16.4c.233.134.455.279.672.429a25.8,25.8,0,0,1,6.679-3.864c-.021-.26-.035-.523-.035-.789a9.467,9.467,0,1,1,18.934,0c0,.266-.014.529-.035.789a25.8,25.8,0,0,1,6.679,3.864c.217-.151.439-.295.672-.429a9.467,9.467,0,1,1,9.467,16.4c-.231.134-.467.254-.7.366a26.062,26.062,0,0,1,0,7.716c.237.112.473.232.7.365A9.467,9.467,0,0,1,603.447,722.847Z" transform="translate(-535.187 -667.146)" fill="#8cdbd1"/>
              <path id="Trazado_25299" data-name="Trazado 25299" d="M639.111,775.9a10.9,10.9,0,0,1,13.648-4.6c.071-.781.112-1.57.112-2.369s-.041-1.589-.112-2.369a10.9,10.9,0,0,1-10.809-18.72,25.8,25.8,0,0,0-4.1-2.374,10.9,10.9,0,0,1-21.617,0,25.8,25.8,0,0,0-4.1,2.374,10.9,10.9,0,0,1-10.809,18.72c-.071.781-.112,1.57-.112,2.369s.041,1.588.112,2.369a10.9,10.9,0,0,1,10.809,18.72,25.809,25.809,0,0,0,4.1,2.374,10.9,10.9,0,0,1,21.617,0,25.809,25.809,0,0,0,4.1-2.374A10.9,10.9,0,0,1,639.111,775.9Zm-12.072,3.929a10.9,10.9,0,1,1,10.9-10.9A10.9,10.9,0,0,1,627.039,779.829Z" transform="translate(-588.494 -730.385)" fill="#8cdbd1"/>
              <path id="Trazado_25300" data-name="Trazado 25300" d="M695.649,837.076a9.467,9.467,0,1,1,9.467-9.467A9.467,9.467,0,0,1,695.649,837.076Z" transform="translate(-657.103 -789.063)" fill="#8cdbd1"/>
            </g>
          </g>
          <g id="Grupo_9565" data-name="Grupo 9565" transform="translate(0 99.309)">
            <path id="Trazado_25303" data-name="Trazado 25303" d="M.775,556.317l2.178,4.637a1.272,1.272,0,0,0,1.015.724l27.008,2.931a1.273,1.273,0,0,0,1.289-1.806l-10.9-23.2-10.9-23.2a1.273,1.273,0,0,0-2.213-.161L0,528.715v4.818l8.066-12.47a1.044,1.044,0,0,1,1.825.151l9.15,19.479,9.15,19.479a1.044,1.044,0,0,1-1.049,1.5L4.869,559.024a1.074,1.074,0,0,1-.841-.613L0,549.837v6.848l.742-.349C.754,556.331.763,556.323.775,556.317Z" transform="translate(0 -515.666)" fill="#8cdbd1"/>
            <path id="Trazado_25304" data-name="Trazado 25304" d="M5.477,602.24a.806.806,0,0,0,.621.461l16.363,2.1a.763.763,0,0,0,.761-1.11L16.39,589.151,9.558,574.607a.763.763,0,0,0-1.34-.123L0,587.457v3.123l2.412,5.136Z" transform="translate(0 -562.879)" fill="#8cdbd1"/>
          </g>
          <g id="Grupo_9566" data-name="Grupo 9566" transform="translate(117.282)">
            <path id="Trazado_25305" data-name="Trazado 25305" d="M647.875,19.379l30.918,10.894a2.125,2.125,0,0,0,2.772-1.1L687.5,12.327a2.125,2.125,0,0,0-1.471-2.594L658.405,0h-6.087L646.4,16.786A2.125,2.125,0,0,0,647.875,19.379Z" transform="translate(-639.12)" fill="#8cdbd1"/>
            <path id="Trazado_25306" data-name="Trazado 25306" d="M610.982,23.04l6,2.115-.8,2.269a1.723,1.723,0,0,0,1.049,2.191L644.7,39.291a1.723,1.723,0,0,0,2.191-1.049l.8-2.269,4.277,1.507a2.991,2.991,0,0,0,3.8-1.822l2.4-6.817.972.342-.02.058a1.313,1.313,0,0,0,.8,1.669l1.732.61a1.313,1.313,0,0,0,1.669-.8l.02-.058.756.266-.02.058a1.313,1.313,0,0,0,.8,1.669l1.732.61a1.313,1.313,0,0,0,1.669-.8l.02-.058,1.361.48c.012,0,.025.005.037.009L668,37.732a1.273,1.273,0,0,0,.215,1.228L685.394,60a1.273,1.273,0,0,0,2.186-.382L696.1,35.441l8.519-24.178A1.272,1.272,0,0,0,703.154,9.6l-26.579,5.623a1.273,1.273,0,0,0-.937.822l-1.7,4.832c-.012,0-.023-.012-.035-.017l-1.361-.48.02-.058a1.312,1.312,0,0,0-.8-1.669l-1.732-.61a1.313,1.313,0,0,0-1.669.8l-.02.058-.756-.267.02-.058a1.313,1.313,0,0,0-.8-1.669l-1.732-.61a1.312,1.312,0,0,0-1.669.8l-.02.058-.971-.342,2.4-6.817a2.991,2.991,0,0,0-1.822-3.8l-9.573-3.373L654.3.3a22.016,22.016,0,0,0,7.059,4.085A22.078,22.078,0,0,0,683.447,0h-4.327a19.431,19.431,0,0,1-16.888,1.916A19.523,19.523,0,0,1,658.277,0H636.614l15.293,5.388a.562.562,0,0,0,.262.025L659.507,8a2.991,2.991,0,0,1,1.822,3.8l-7.111,20.183a2.991,2.991,0,0,1-3.8,1.822L614.493,21.151a2.991,2.991,0,0,1-1.822-3.8L618.784,0h-2.845l-6.778,19.237A2.991,2.991,0,0,0,610.982,23.04Zm59.563,13.633,3.208-9.105,3.208-9.105a1.075,1.075,0,0,1,.776-.694l21.9-4.868a1.044,1.044,0,0,1,1.194,1.388l-7.152,20.3-7.152,20.3a1.044,1.044,0,0,1-1.8.333L670.715,37.7A1.074,1.074,0,0,1,670.546,36.674Z" transform="translate(-608.992)" fill="#8cdbd1"/>
            <path id="Trazado_25307" data-name="Trazado 25307" d="M967.539,90.427,951.469,94.16a.806.806,0,0,0-.572.521l-2.4,6.8-2.4,6.8a.806.806,0,0,0,.119.764l10.181,12.981a.764.764,0,0,0,1.321-.257l5.34-15.155,5.34-15.155A.763.763,0,0,0,967.539,90.427Z" transform="translate(-881.146 -72.996)" fill="#8cdbd1"/>
          </g>
          <g id="Grupo_9569" data-name="Grupo 9569" transform="translate(39.487 37.582)">
            <rect id="Rectángulo_2428" data-name="Rectángulo 2428" width="23.323" height="20.675" rx="10.337" transform="matrix(0.54, -0.842, 0.842, 0.54, 16.238, 82.19)" fill="#8cdbd1"/>
            <rect id="Rectángulo_2429" data-name="Rectángulo 2429" width="23.323" height="20.675" rx="10.337" transform="matrix(0.54, -0.842, 0.842, 0.54, 31.375, 58.579)" fill="#8cdbd1"/>
            <rect id="Rectángulo_2430" data-name="Rectángulo 2430" width="23.323" height="20.675" rx="10.337" transform="translate(46.511 34.968) rotate(-57.337)" fill="#8cdbd1"/>
            <path id="Trazado_25313" data-name="Trazado 25313" d="M257.587,195.889l-2.246,3.5-2.049,3.2-2.5,3.905-2.049,3.2-2.5,3.906-2.049,3.2-2.5,3.906-2.048,3.2-2.5,3.905-2.049,3.2-2.5,3.906-2.049,3.2-2.5,3.906-2.048,3.2-2.5,3.906-2.048,3.2-2.5,3.905-2.049,3.2-2.5,3.906-2.049,3.2-2.5,3.906-2.048,3.2-2.486,3.877a1.859,1.859,0,0,0,.712,2.513l36.267,23.25a1.859,1.859,0,0,0,2.581-.4l2.486-3.878,2.049-3.2,2.5-3.906,2.048-3.2,2.5-3.906,2.049-3.2,2.5-3.905,2.049-3.2,2.5-3.906,2.049-3.2,2.5-3.906,2.049-3.2,2.5-3.905,2.049-3.2,2.5-3.906,2.048-3.2,2.5-3.906,2.048-3.2,2.5-3.906,2.049-3.2,2.5-3.905,2.049-3.2,2.246-3.5a1.859,1.859,0,0,0-.712-2.513l-36.267-23.25A1.859,1.859,0,0,0,257.587,195.889Zm31.78,29.826-1.721-1.1-2.5,3.906,1.721,1.1-2.049,3.2-1.721-1.1-2.5,3.905,1.721,1.1-2.049,3.2-1.721-1.1-2.5,3.906,1.721,1.1-2.049,3.2-1.721-1.1-2.5,3.906,1.721,1.1-2.049,3.2-1.721-1.1-2.5,3.906,1.721,1.1-2.048,3.2-1.721-1.1-2.5,3.905,1.721,1.1-2.049,3.2-1.721-1.1-2.5,3.906,1.721,1.1-2.049,3.2-1.721-1.1-2.5,3.906,1.721,1.1-2.049,3.2-1.721-1.1-2.5,3.905,1.721,1.1-2.049,3.2-1.721-1.1-2.5,3.906,1.721,1.1-2.049,3.2-1.721-1.1-.29.452a1.737,1.737,0,0,1-2.392.523L213.3,279.838a1.737,1.737,0,0,1-.523-2.392l.289-.452-1.721-1.1,2.048-3.2,1.721,1.1,2.5-3.905-1.721-1.1,2.048-3.2,1.721,1.1,2.5-3.906-1.721-1.1,2.049-3.2,1.721,1.1,2.5-3.906-1.721-1.1,2.049-3.2,1.721,1.1,2.5-3.905-1.721-1.1,2.048-3.2,1.721,1.1,2.5-3.906-1.721-1.1,2.048-3.2,1.721,1.1,2.5-3.906-1.721-1.1,2.048-3.2,1.721,1.1,2.5-3.906-1.721-1.1,2.049-3.2,1.721,1.1,2.5-3.905-1.721-1.1,2.049-3.2,1.721,1.1,2.5-3.906-1.721-1.1,2.048-3.2,1.721,1.1,2.5-3.906-1.721-1.1,2.049-3.2,1.721,1.1.05-.078a1.737,1.737,0,0,1,2.392-.523l26.139,16.757a1.736,1.736,0,0,1,.523,2.392l-.05.078,1.721,1.1Z" transform="translate(-205.038 -195.146)" fill="#8cdbd1"/>
          </g>
        </g>
      </g>
      <g id="Grupo_9596" data-name="Grupo 9596" transform="translate(1707 -1)">
        <g id="Grupo_9575-2" data-name="Grupo 9575" transform="translate(0)">
          <g id="Grupo_9558-2" data-name="Grupo 9558" transform="translate(126.092 181.05)">
            <path id="Trazado_25279-2" data-name="Trazado 25279" d="M6,1057.187l-5.312-9.118a5.076,5.076,0,0,1,1.825-6.921l11.407-6.645a5.076,5.076,0,0,1,6.92,1.826l.618,1.061v16.648l-8.539,4.974A5.076,5.076,0,0,1,6,1057.187Z" transform="translate(65.435 -1015.773)" fill="#8cdbd1"/>
            <rect id="Rectángulo_2426-2" data-name="Rectángulo 2426" width="20.675" height="23.323" rx="10.337" transform="translate(49.745 59.905) rotate(-120.223)" fill="#8cdbd1"/>
            <rect id="Rectángulo_2427-2" data-name="Rectángulo 2427" width="20.675" height="23.323" rx="10.337" transform="translate(25.511 74.022) rotate(-120.223)" fill="#8cdbd1"/>
            <path id="Trazado_25280-2" data-name="Trazado 25280" d="M.361,1179.329v.831L0,1179.54Z" transform="translate(86.528 -1133.26)" fill="#8cdbd1"/>
            <path id="Trazado_25281-2" data-name="Trazado 25281" d="M82.353,995.982l-3.28,1.911-4.009,2.335-3.28,1.911-4.009,2.335-3.28,1.911-4.009,2.335-3.28,1.911-4.009,2.335-3.28,1.911-4.008,2.335-3.28,1.911-4.008,2.335-3.28,1.911-4.009,2.335-3.28,1.911-3.6,2.095a1.859,1.859,0,0,1-2.48-.818L.293,991.667A1.859,1.859,0,0,1,.8,989.106l3.6-2.095,3.28-1.911,4.008-2.335,3.28-1.911,4.009-2.335,3.28-1.911,4.009-2.335,3.28-1.911,4.009-2.335,3.28-1.911,4.009-2.335,3.28-1.911,4.009-2.335,3.28-1.911,4.009-2.335,3.28-1.911,4.008-2.335,3.28-1.911L70,948.8l3.28-1.911,4.009-2.335,3.28-1.911,3.98-2.318a1.826,1.826,0,0,1,2.346.616v8.055l-.326-.56a1.737,1.737,0,0,0-2.368-.624l-.464.27L82.7,946.313l-3.28,1.911,1.029,1.767-4.009,2.335-1.029-1.767-3.28,1.911,1.029,1.767-4.009,2.335L68.127,954.8l-3.28,1.911,1.029,1.766-4.008,2.335-1.029-1.767-3.28,1.911,1.029,1.766-4.009,2.335L53.55,963.3l-3.28,1.911,1.029,1.767-4.009,2.335-1.029-1.767-3.28,1.911,1.029,1.767L40,973.555l-1.029-1.767-3.28,1.911,1.029,1.766L32.714,977.8l-1.029-1.767-3.28,1.911,1.029,1.767-4.009,2.335L24.4,980.28l-3.28,1.911,1.029,1.767-4.009,2.335-1.029-1.766-3.28,1.911,1.029,1.767-4.009,2.335L9.82,988.772l-3.28,1.911,1.029,1.767-.08.047a1.737,1.737,0,0,0-.625,2.368l15.629,26.829a1.736,1.736,0,0,0,2.368.624l.08-.047,1.029,1.767,3.28-1.911-1.029-1.766,4.009-2.335,1.029,1.767,3.28-1.911-1.029-1.766,4.009-2.335,1.029,1.767,3.28-1.911-1.029-1.767,4.009-2.335,1.029,1.766,3.28-1.911-1.029-1.767,4.009-2.335,1.029,1.767,3.28-1.911-1.029-1.767,4.009-2.335,1.029,1.767,3.28-1.911-1.029-1.767,4.008-2.335,1.029,1.767,3.28-1.911-1.029-1.767,4.008-2.335,1.029,1.767,3.28-1.911-1.029-1.767,4.008-2.335,1.029,1.767,2.612-1.522v4.792l-.528.308Z" transform="translate(0 -940.112)" fill="#8cdbd1"/>
          </g>
          <g id="Grupo_9560-2" data-name="Grupo 9560" transform="translate(161.15)">
            <path id="Trazado_25282-2" data-name="Trazado 25282" d="M0,36.69A44.322,44.322,0,0,1,19.415,0H25.9A41.079,41.079,0,0,0,51.832,77.081v3.35A44.39,44.39,0,0,1,0,36.69Z" fill="#8cdbd1"/>
            <g id="Grupo_9559-2" data-name="Grupo 9559" transform="translate(5.824)">
              <path id="Trazado_25283-2" data-name="Trazado 25283" d="M113.534,98.173A9.466,9.466,0,0,1,101.306,102,25.8,25.8,0,0,1,110.74,85.67,9.466,9.466,0,0,1,113.534,98.173Z" transform="translate(-88.305 -69.171)" fill="#8cdbd1"/>
              <path id="Trazado_25284-2" data-name="Trazado 25284" d="M9.432,66.837A9.466,9.466,0,0,1,0,58.159a25.933,25.933,0,0,1,16.894-.68v5.71A9.443,9.443,0,0,1,9.432,66.837Z" transform="translate(29.115 -45.525)" fill="#8cdbd1"/>
              <path id="Trazado_25285-2" data-name="Trazado 25285" d="M9.467,160.291A9.467,9.467,0,1,1,16.929,145v11.643A9.448,9.448,0,0,1,9.467,160.291Z" transform="translate(29.079 -114.134)" fill="#8cdbd1"/>
              <path id="Trazado_25286-2" data-name="Trazado 25286" d="M101.306,206.764A9.464,9.464,0,0,1,110.74,223.1,25.805,25.805,0,0,1,101.306,206.764Z" transform="translate(-88.305 -166.216)" fill="#8cdbd1"/>
              <path id="Trazado_25287-2" data-name="Trazado 25287" d="M0,279.038a9.462,9.462,0,0,1,16.894-5.03v5.71A25.93,25.93,0,0,1,0,279.038Z" transform="translate(29.115 -218.293)" fill="#8cdbd1"/>
              <path id="Trazado_25288-2" data-name="Trazado 25288" d="M0,36.69A38.561,38.561,0,0,1,26.7,0h19.3V6.024a9.465,9.465,0,0,0-16.929,5.822c0,.266.014.528.035.789A25.8,25.8,0,0,0,22.436,16.5c-.217-.15-.439-.3-.672-.429a9.467,9.467,0,0,0-9.467,16.4c.231.134.467.253.7.366a26.076,26.076,0,0,0,0,7.716c-.237.112-.473.232-.7.366a9.467,9.467,0,0,0,9.467,16.4c.232-.134.455-.279.672-.429a25.8,25.8,0,0,0,6.679,3.864c-.022.26-.035.523-.035.789a9.465,9.465,0,0,0,16.929,5.822v7.156A38.568,38.568,0,0,1,0,36.69Z" fill="#8cdbd1"/>
              <path id="Trazado_25289-2" data-name="Trazado 25289" d="M15.023,115.609a25.8,25.8,0,0,1-4.1-2.374A10.9,10.9,0,0,0,.112,94.515C.041,93.735,0,92.945,0,92.146s.041-1.588.112-2.369a10.9,10.9,0,0,0,10.809-18.72,25.779,25.779,0,0,1,4.1-2.374,10.892,10.892,0,0,0,18.271,6.562v8.961a10.9,10.9,0,1,0,0,15.877v8.962a10.891,10.891,0,0,0-18.271,6.562Z" transform="translate(12.715 -55.457)" fill="#8cdbd1"/>
              <path id="Trazado_25290-2" data-name="Trazado 25290" d="M9.467,160.291A9.467,9.467,0,1,1,16.929,145v11.643A9.448,9.448,0,0,1,9.467,160.291Z" transform="translate(29.079 -114.134)" fill="#8cdbd1"/>
            </g>
          </g>
          <g id="Grupo_9562-2" data-name="Grupo 9562" transform="translate(26.998 122.658)">
            <path id="Trazado_25291-2" data-name="Trazado 25291" d="M549.318,636.907a44.37,44.37,0,1,1-44.37,44.37A44.369,44.369,0,0,1,549.318,636.907Zm0,85.439a41.069,41.069,0,1,0-41.069-41.069A41.069,41.069,0,0,0,549.318,722.346Z" transform="translate(-504.948 -636.907)" fill="#8cdbd1"/>
            <g id="Grupo_9561-2" data-name="Grupo 9561" transform="translate(5.824 5.824)">
              <path id="Trazado_25292-2" data-name="Trazado 25292" d="M810.124,774.957a9.466,9.466,0,0,1-12.227,3.831,25.805,25.805,0,0,1,9.434-16.333A9.466,9.466,0,0,1,810.124,774.957Z" transform="translate(-784.895 -744.099)" fill="#8cdbd1"/>
              <path id="Trazado_25293-2" data-name="Trazado 25293" d="M603.967,774.957a9.466,9.466,0,0,1,2.793-12.5,25.805,25.805,0,0,1,9.434,16.333A9.466,9.466,0,0,1,603.967,774.957Z" transform="translate(-552.105 -744.099)" fill="#8cdbd1"/>
              <path id="Trazado_25294-2" data-name="Trazado 25294" d="M695.8,743.622a9.466,9.466,0,0,1-9.432-8.678,25.924,25.924,0,0,1,18.863,0A9.466,9.466,0,0,1,695.8,743.622Z" transform="translate(-657.251 -720.452)" fill="#8cdbd1"/>
              <ellipse id="Elipse_617-2" data-name="Elipse 617" cx="9.467" cy="9.467" rx="9.467" ry="9.467" transform="matrix(-0.856, -0.517, 0.517, -0.856, 41.75, 51.545)" fill="#8cdbd1"/>
              <path id="Trazado_25295-2" data-name="Trazado 25295" d="M797.9,883.549a9.464,9.464,0,0,1,9.434,16.333A25.8,25.8,0,0,1,797.9,883.549Z" transform="translate(-784.895 -841.145)" fill="#8cdbd1"/>
              <path id="Trazado_25296-2" data-name="Trazado 25296" d="M603.967,887.379a9.465,9.465,0,0,1,12.227-3.831,25.8,25.8,0,0,1-9.434,16.333A9.466,9.466,0,0,1,603.967,887.379Z" transform="translate(-552.105 -841.145)" fill="#8cdbd1"/>
              <path id="Trazado_25297-2" data-name="Trazado 25297" d="M695.8,947.145a9.466,9.466,0,0,1,9.432,8.678,25.929,25.929,0,0,1-18.863,0A9.466,9.466,0,0,1,695.8,947.145Z" transform="translate(-657.251 -893.222)" fill="#8cdbd1"/>
              <path id="Trazado_25298-2" data-name="Trazado 25298" d="M573.733,667.146a38.546,38.546,0,1,1-38.546,38.546A38.546,38.546,0,0,1,573.733,667.146Zm-29.714,55.7a9.466,9.466,0,0,0,12.932,3.465c.233-.134.455-.279.672-.429a25.8,25.8,0,0,0,6.679,3.864c-.021.26-.035.523-.035.789a9.467,9.467,0,0,0,18.934,0c0-.266-.014-.528-.035-.789a25.807,25.807,0,0,0,6.679-3.864c.216.15.439.3.672.429a9.467,9.467,0,1,0,9.467-16.4c-.231-.134-.467-.254-.7-.365a26.084,26.084,0,0,0,0-7.716c.237-.112.473-.232.7-.366a9.467,9.467,0,1,0-9.467-16.4c-.233.134-.455.279-.672.429a25.8,25.8,0,0,0-6.679-3.864c.021-.26.035-.523.035-.789a9.467,9.467,0,1,0-18.934,0c0,.266.014.529.035.789a25.8,25.8,0,0,0-6.679,3.864c-.217-.151-.439-.295-.672-.429a9.467,9.467,0,1,0-9.467,16.4c.231.134.467.254.7.366a26.062,26.062,0,0,0,0,7.716c-.237.112-.473.232-.7.365A9.467,9.467,0,0,0,544.019,722.847Z" transform="translate(-535.187 -667.146)" fill="#8cdbd1"/>
              <path id="Trazado_25299-2" data-name="Trazado 25299" d="M614.968,775.9a10.9,10.9,0,0,0-13.648-4.6c-.071-.781-.112-1.57-.112-2.369s.041-1.589.112-2.369a10.9,10.9,0,0,0,10.809-18.72,25.8,25.8,0,0,1,4.1-2.374,10.9,10.9,0,0,0,21.617,0,25.8,25.8,0,0,1,4.1,2.374,10.9,10.9,0,0,0,10.809,18.72c.071.781.112,1.57.112,2.369s-.041,1.588-.112,2.369a10.9,10.9,0,0,0-10.809,18.72,25.809,25.809,0,0,1-4.1,2.374,10.9,10.9,0,0,0-21.617,0,25.809,25.809,0,0,1-4.1-2.374A10.9,10.9,0,0,0,614.968,775.9Zm12.072,3.929a10.9,10.9,0,1,0-10.9-10.9A10.9,10.9,0,0,0,627.04,779.829Z" transform="translate(-588.494 -730.385)" fill="#8cdbd1"/>
              <path id="Trazado_25300-2" data-name="Trazado 25300" d="M695.649,837.076a9.467,9.467,0,1,0-9.467-9.467A9.467,9.467,0,0,0,695.649,837.076Z" transform="translate(-657.103 -789.063)" fill="#8cdbd1"/>
            </g>
          </g>
          <g id="Grupo_9565-2" data-name="Grupo 9565" transform="translate(180.593 99.309)">
            <path id="Trazado_25303-2" data-name="Trazado 25303" d="M31.613,556.317l-2.178,4.637a1.272,1.272,0,0,1-1.015.724L1.412,564.609A1.273,1.273,0,0,1,.123,562.8l10.9-23.2,10.9-23.2a1.273,1.273,0,0,1,2.213-.161l8.255,12.478v4.818l-8.066-12.47a1.044,1.044,0,0,0-1.825.151l-9.15,19.479L4.2,560.172a1.044,1.044,0,0,0,1.049,1.5l22.273-2.649a1.074,1.074,0,0,0,.841-.613l4.027-8.574v6.848l-.742-.349C31.634,556.331,31.625,556.323,31.613,556.317Z" transform="translate(0 -515.666)" fill="#8cdbd1"/>
            <path id="Trazado_25304-2" data-name="Trazado 25304" d="M17.825,602.24a.806.806,0,0,1-.621.461L.841,604.8a.763.763,0,0,1-.761-1.11l6.832-14.544,6.832-14.544a.763.763,0,0,1,1.34-.123L23.3,587.457v3.123l-2.412,5.136Z" transform="translate(9.087 -562.879)" fill="#8cdbd1"/>
          </g>
          <g id="Grupo_9566-2" data-name="Grupo 9566" transform="translate(0)">
            <path id="Trazado_25305-2" data-name="Trazado 25305" d="M686.031,19.379,655.112,30.273a2.125,2.125,0,0,1-2.772-1.1L646.4,12.327a2.125,2.125,0,0,1,1.471-2.594L675.5,0h6.087L687.5,16.786A2.125,2.125,0,0,1,686.031,19.379Z" transform="translate(-599.085)" fill="#8cdbd1"/>
            <path id="Trazado_25306-2" data-name="Trazado 25306" d="M702.7,23.04l-6,2.115.8,2.269a1.723,1.723,0,0,1-1.049,2.191l-27.463,9.676a1.723,1.723,0,0,1-2.191-1.049l-.8-2.269-4.277,1.507a2.991,2.991,0,0,1-3.8-1.822l-2.4-6.817-.972.342.02.058a1.313,1.313,0,0,1-.8,1.669l-1.732.61a1.313,1.313,0,0,1-1.669-.8l-.02-.058-.756.266.02.058a1.313,1.313,0,0,1-.8,1.669l-1.732.61a1.313,1.313,0,0,1-1.669-.8l-.02-.058-1.361.48c-.012,0-.025.005-.037.009l1.7,4.832a1.273,1.273,0,0,1-.215,1.228L628.29,60a1.273,1.273,0,0,1-2.186-.382l-8.519-24.178-8.519-24.178A1.272,1.272,0,0,1,610.53,9.6l26.579,5.623a1.273,1.273,0,0,1,.937.822l1.7,4.832c.012,0,.023-.012.035-.017l1.361-.48-.02-.058a1.312,1.312,0,0,1,.8-1.669l1.732-.61a1.313,1.313,0,0,1,1.669.8l.02.058.756-.267-.02-.058a1.313,1.313,0,0,1,.8-1.669l1.732-.61a1.312,1.312,0,0,1,1.669.8l.02.058.971-.342-2.4-6.817a2.991,2.991,0,0,1,1.822-3.8l9.573-3.373L659.38.3a22.016,22.016,0,0,1-7.059,4.085A22.078,22.078,0,0,1,630.236,0h4.327a19.431,19.431,0,0,0,16.888,1.916A19.523,19.523,0,0,0,655.407,0H677.07L661.777,5.388a.562.562,0,0,1-.262.025L654.177,8a2.991,2.991,0,0,0-1.822,3.8l7.111,20.183a2.991,2.991,0,0,0,3.8,1.822L699.19,21.151a2.991,2.991,0,0,0,1.822-3.8L694.9,0h2.845l6.778,19.237A2.991,2.991,0,0,1,702.7,23.04ZM643.138,36.674l-3.208-9.105-3.208-9.105a1.075,1.075,0,0,0-.776-.694l-21.9-4.868a1.044,1.044,0,0,0-1.194,1.388l7.152,20.3,7.152,20.3a1.044,1.044,0,0,0,1.8.333L642.969,37.7A1.074,1.074,0,0,0,643.138,36.674Z" transform="translate(-608.992)" fill="#8cdbd1"/>
            <path id="Trazado_25307-2" data-name="Trazado 25307" d="M946.976,90.427l16.069,3.732a.806.806,0,0,1,.572.521l2.4,6.8,2.4,6.8a.806.806,0,0,1-.119.764l-10.181,12.981a.764.764,0,0,1-1.321-.257l-5.34-15.155-5.34-15.155A.763.763,0,0,1,946.976,90.427Z" transform="translate(-937.669 -72.996)" fill="#8cdbd1"/>
          </g>
          <g id="Grupo_9569-2" data-name="Grupo 9569" transform="translate(81.141 37.582)">
            <rect id="Rectángulo_2428-2" data-name="Rectángulo 2428" width="23.323" height="20.675" rx="10.337" transform="matrix(-0.54, -0.842, 0.842, -0.54, 58.711, 93.348)" fill="#8cdbd1"/>
            <rect id="Rectángulo_2429-2" data-name="Rectángulo 2429" width="23.323" height="20.675" rx="10.337" transform="matrix(-0.54, -0.842, 0.842, -0.54, 43.574, 69.737)" fill="#8cdbd1"/>
            <rect id="Rectángulo_2430-2" data-name="Rectángulo 2430" width="23.323" height="20.675" rx="10.337" transform="translate(28.438 46.126) rotate(-122.663)" fill="#8cdbd1"/>
            <path id="Trazado_25313-2" data-name="Trazado 25313" d="M244.843,195.889l2.246,3.5,2.049,3.2,2.5,3.905,2.049,3.2,2.5,3.906,2.049,3.2,2.5,3.906,2.049,3.2,2.5,3.905,2.049,3.2,2.5,3.906,2.049,3.2L274.4,242l2.049,3.2,2.5,3.906,2.048,3.2,2.5,3.905,2.049,3.2,2.5,3.906,2.049,3.2,2.5,3.906,2.048,3.2,2.486,3.877a1.859,1.859,0,0,1-.712,2.513l-36.268,23.25a1.859,1.859,0,0,1-2.581-.4l-2.486-3.878-2.049-3.2-2.5-3.906-2.048-3.2-2.5-3.906-2.049-3.2-2.5-3.905-2.049-3.2-2.5-3.906-2.049-3.2-2.5-3.906-2.049-3.2-2.5-3.905-2.049-3.2-2.5-3.906-2.048-3.2-2.5-3.906-2.048-3.2-2.5-3.906-2.049-3.2-2.5-3.905-2.049-3.2-2.246-3.5a1.859,1.859,0,0,1,.712-2.513l36.267-23.25A1.859,1.859,0,0,1,244.843,195.889Zm-31.78,29.826,1.721-1.1,2.5,3.906-1.721,1.1,2.049,3.2,1.721-1.1,2.5,3.905-1.721,1.1,2.049,3.2,1.721-1.1,2.5,3.906-1.721,1.1,2.049,3.2,1.721-1.1,2.5,3.906-1.721,1.1,2.049,3.2,1.721-1.1,2.5,3.906-1.721,1.1,2.048,3.2,1.721-1.1,2.5,3.905-1.721,1.1,2.049,3.2,1.721-1.1,2.5,3.906-1.721,1.1,2.049,3.2,1.721-1.1,2.5,3.906-1.721,1.1,2.049,3.2,1.721-1.1,2.5,3.905-1.721,1.1,2.049,3.2,1.721-1.1,2.5,3.906-1.721,1.1,2.049,3.2,1.721-1.1.29.452a1.737,1.737,0,0,0,2.392.523l26.139-16.757a1.737,1.737,0,0,0,.523-2.392l-.289-.452,1.721-1.1-2.049-3.2-1.721,1.1-2.5-3.905,1.721-1.1-2.049-3.2-1.721,1.1-2.5-3.906,1.721-1.1-2.049-3.2-1.721,1.1-2.5-3.906,1.721-1.1-2.049-3.2-1.721,1.1-2.5-3.905,1.721-1.1-2.048-3.2-1.721,1.1-2.5-3.906,1.721-1.1-2.048-3.2-1.721,1.1-2.5-3.906,1.721-1.1-2.049-3.2-1.721,1.1-2.5-3.906,1.721-1.1-2.049-3.2-1.721,1.1-2.5-3.905,1.721-1.1-2.049-3.2-1.721,1.1-2.5-3.906,1.721-1.1-2.048-3.2-1.721,1.1-2.5-3.906,1.721-1.1-2.049-3.2-1.721,1.1-.05-.078a1.737,1.737,0,0,0-2.392-.523l-26.139,16.757a1.736,1.736,0,0,0-.523,2.392l.05.078-1.721,1.1Z" transform="translate(-205.038 -195.146)" fill="#8cdbd1"/>
          </g>
        </g>
      </g>
    </g>
  </g>
</svg>
